<svg class="svg-icon" style="width: 1em; height: 1em;vertical-align: middle;fill: currentColor;overflow: hidden;" viewBox="0 0 1024 1024" version="1.1" xmlns="http://www.w3.org/2000/svg"><path d="M609.9 139.4H419.7c-16.6 0-30-13.4-30-30s13.4-30 30-30H610c16.6 0 30 13.4 30 30s-13.5 30-30.1 30z m72.8 210H341.3c-16.6 0-30-13.4-30-30s13.4-30 30-30h341.3c16.6 0 30 13.4 30 30s-13.4 30-29.9 30z m-341.4 156c-16.6 0-30-13.4-30-30s13.4-30 30-30H512c16.6 0 30 13.4 30 30s-13.4 30-30 30H341.3z m170.7 156H341.3c-16.6 0-30-13.4-30-30s13.4-30 30-30H512c16.6 0 30 13.4 30 30s-13.4 30-30 30zM466 950H260.7c-49.6 0-90-40-90-89.3v-691c0-49.2 40.4-89.3 90-89.3h50.7c16.6 0 30 13.4 30 30s-13.4 30-30 30h-50.7c-16.5 0-30 13.1-30 29.3v691.1c0 16.1 13.5 29.3 30 29.3H466c16.6 0 30 13.4 30 30S482.6 950 466 950z m356.3-486.6c-16.6 0-30-13.4-30-30V169.7c0-16.1-13.5-29.3-30-29.3h-49.7c-16.6 0-30-13.4-30-30s13.4-30 30-30h49.7c49.6 0 90 40 90 89.3v263.7c0 16.6-13.4 30-30 30z m45.1 352h-66.2V710.2c31.3-24.1 50.2-62.5 50.2-103.4 0-71.1-55.9-129-124.6-129-68.7 0-124.6 57.9-124.6 129 0 42.7 20.1 82 53.5 105.9v102.6h-65c-23.2 0-42.1 19.6-42.1 43.6v63.4c0 24 18.9 43.6 42.1 43.6h276.7c23.2 0 42.1-19.6 42.1-43.6V859c0-24.1-18.9-43.6-42.1-43.6zM650.2 606.9c0-43.8 34.3-79.3 76.6-79.3s76.6 35.5 76.6 79.3c0 28.2-14.7 54.5-38.2 68.6-7.4 4.5-11.9 12.6-11.9 21.4v118.4h-49.7V698.8c0-9.1-4.9-17.6-12.8-21.8-25-13.8-40.6-40.7-40.6-70.1z m211.3 309.4h-265V865h265v51.3z"  /></svg>